<svg xmlns="http://www.w3.org/2000/svg" width="24" height="24" viewBox="0 0 24 24"><path fill="currentColor" d="M8.087 15.423q-.056-.08.417-.664t1.085-1.242q.694-.785 1.62-1.74q.281-.373.72-.383t.73.352q.262.342.178.768t-.464.632q-1.17.694-2.085 1.22q-.8.442-1.472.79q-.674.348-.73.267m2.856 5.923q-.125 0-.221-.042q-.097-.042-.155-.148q-.078-.127-.168-.352t-.09-.525q0-.192.025-.353t.055-.322q-.57-.105-.96-.569t-.39-1.073q0-.158.056-.449q-1.557-.55-2.514-1.755t-1.243-3.11q-.125.125-.25.18t-.288.057q-.309 0-.785-.476q-.476-.475-.476-2.06q0-1.459.85-2.635q.849-1.176 1.694-1.176q.281 0 .35.25t.068.466q.815-1.139 2.022-1.879t2.684-.907q.129-.605.611-.96t1.03-.354V4q.08-.112.21-.212q.106-.084.265-.148t.37-.063t.37.063t.265.148q.13.1.211.212q-.317 0-.528.187t-.268.473q1.14.295 2.111.97T17.5 7.254q0-.217.068-.466t.35-.25q.845 0 1.695 1.174q.849 1.175.849 2.634q0 1.587-.476 2.063t-.794.476q-.141 0-.272-.053t-.257-.159q-.295 2.114-1.446 3.372t-3.052 1.68q.064.298.284.479q.221.18.516.18h.484q.147 0 .254.085q.107.084.15.21q.106.336.373.63t.484.5q.161.137.158.336t-.17.305q-.232.17-.589.296q-.357.127-.936.177q-.125 0-.222-.042t-.154-.148q-.078-.127-.168-.352t-.09-.525q0-.192.024-.353t.056-.322q-.504-.087-.858-.444t-.442-.856q-.317.04-.634.06t-.679.02q-.552 0-1.072-.052t-1-.159l-.05.212q0 .36.24.602t.602.244h.49q.15 0 .256.084t.15.21q.106.336.373.63q.267.295.484.5q.161.137.159.336t-.171.305q-.232.17-.589.296t-.936.177m6.77-8.275q.105-.423.158-.888q.053-.466.053-.995q0-2.453-1.735-4.186t-4.19-1.733T7.81 7.004t-1.733 4.188q0 .523.053.98q.053.458.158.874q.125-.423.29-.824t.4-.768q-.13-.312-.198-.632t-.068-.68q0-1.336.919-2.258t2.25-.922q.613 0 1.153.223t.963.605q.423-.382.963-.605t1.154-.223q1.333 0 2.254.924q.92.924.92 2.256q0 .36-.077.68q-.078.32-.215.632q.237.367.414.768t.302.85m-5.721 4.043q1.838 0 3.101-.57q1.263-.572 1.964-1.714q0-.064.01-.127q.01-.064.01-.127q0-.635-.145-1.228t-.439-1.124q-.448.498-1.052.79t-1.325.293q-.174 0-.348-.016q-.175-.015-.336-.065q.106-.144.158-.3t.078-.333q.025-.045.025-.09v-.092q.125.025.212.037t.211.013q.973 0 1.65-.678t.677-1.652t-.677-1.65t-1.65-.674q-.442 0-.834.157q-.392.158-.702.452L12 8.921l-.576-.503q-.32-.293-.709-.452q-.388-.158-.83-.158q-.973 0-1.65.677t-.677 1.65q0 .852.531 1.483q.532.632 1.348.794l-.635.71q-.373-.137-.703-.371t-.591-.526q-.293.53-.439 1.123t-.146 1.229v.211q.715 1.158 1.983 1.743q1.268.584 3.085.584m2.124-5.5q-.528 0-.899-.432t-.37-1.046t.37-1.048t.9-.435t.898.433t.37 1.045t-.37 1.048t-.899.435m.31-1.903q.144 0 .235-.096q.09-.097.09-.225t-.093-.22t-.216-.094q-.145 0-.235.093t-.09.216q0 .145.092.235t.217.09m-4.54 1.904q-.53 0-.9-.432t-.37-1.046t.37-1.048t.9-.435t.899.433t.37 1.045t-.37 1.048t-.9.435m.31-1.903q.144 0 .235-.096q.09-.097.09-.225t-.093-.22t-.216-.094q-.145 0-.235.093t-.09.216q0 .145.092.235t.217.09"/></svg>